<?xml version="1.0" encoding="UTF-8"?>
<svg class="svg-icon" overflow="hidden" style="height:1em;vertical-align:middle;width:1em" version="1.1" viewBox="0 0 1024 1024" xmlns="http://www.w3.org/2000/svg">
<path d="m516.5 237.96c-206.14 0-375.42 169.28-375.42 374.05v383.61h750.84v-383.61c0-204.77-169.28-374.05-375.42-374.05z" fill="#e8e6ff" stroke-width="2.1331"/>
<path d="m919.22 1022.9h-805.44v-410.91c0-221.16 180.2-401.36 402.72-401.36 222.52 0 402.72 180.2 402.72 401.36zm-750.84-54.606h696.23v-356.31c0-191.12-155.63-346.75-348.11-346.75s-348.11 155.63-348.11 346.75z" fill="#708db7" stroke-width="2.1331"/>
<path d="m942.43 809.96c-27.303 0-49.146-21.842-49.146-49.146v-81.909c0-27.303 21.843-49.146 49.146-49.146 27.303 0 49.146 21.843 49.146 49.146v81.909c0 27.303-21.843 49.146-49.146 49.146z" fill="#eef6ff" stroke-width="2.1331"/>
<path d="m942.43 837.26c-42.32 0-76.449-34.129-76.449-76.449v-81.909c0-42.32 34.129-76.449 76.449-76.449 42.32 0 76.449 34.129 76.449 76.449v81.909c0 42.32-34.129 76.449-76.449 76.449zm0-178.84c-12.286 0-21.843 9.5561-21.843 21.842v81.909c0 12.286 9.5561 21.842 21.843 21.842 12.286 0 21.842-9.5561 21.842-21.842v-81.909c0-12.286-9.5561-21.842-21.842-21.842z" fill="#708db7" stroke-width="2.1331"/>
<path d="m83.742 788.12c-27.303 0-49.146-21.843-49.146-49.146v-81.909c0-27.303 21.842-49.146 49.146-49.146s49.146 21.842 49.146 49.146v81.909c0 27.303-23.208 49.146-49.146 49.146z" fill="#eef6ff" stroke-width="2.1331"/>
<path d="m83.742 815.42c-42.32 0-76.449-34.129-76.449-76.449v-81.909c0-42.32 34.129-76.449 76.449-76.449 42.32 0 76.449 34.129 76.449 76.449v81.909c0 42.32-35.494 76.449-76.449 76.449zm0-178.84c-12.286 0-21.842 9.5561-21.842 21.842v81.909c0 12.286 9.5561 21.842 21.842 21.842 12.286 0 21.843-9.5561 21.843-21.842v-81.909c0-12.286-10.921-21.842-21.843-21.842z" fill="#708db7" stroke-width="2.1331"/>
<path d="m524.69 3.1523c-51.876-1e-7 -92.83 40.954-92.83 92.83 0 51.876 42.319 92.832 92.83 92.832 50.511 0 92.83-40.956 92.83-92.832 0-51.876-40.954-92.83-92.83-92.83zm0 54.605c20.477 0 38.225 17.747 38.225 38.225 0 20.477-17.747 38.225-38.225 38.225-20.477 0-38.225-17.747-38.225-38.225 0-20.477 17.747-38.225 38.225-38.225z" fill="#708db7" stroke-width="2.1331"/>
<path d="m496.02 176.53h54.606v68.258h-54.606z" fill="#708db7" stroke-width="2.1331"/>
<path d="m511.04 542.39m-147.44 0a147.44 147.44 0 1 0 294.87 0 147.44 147.44 0 1 0-294.87 0z" fill="#fff27d" stroke-width="2.1331"/>
<path d="m511.04 717.13c-95.561 0-174.74-77.814-174.74-174.74s77.814-174.74 174.74-174.74c96.926 0 174.74 77.814 174.74 174.74s-79.179 174.74-174.74 174.74zm0-294.87c-65.527 0-120.13 53.241-120.13 120.13 0 66.893 53.241 120.13 120.13 120.13 66.893 0 120.13-53.241 120.13-120.13 0-66.893-54.606-120.13-120.13-120.13z" fill="#708db7" stroke-width="2.1331"/>
<path d="m706.25 814.06m-21.842 0a21.842 21.842 0 1 0 43.685 0 21.842 21.842 0 1 0-43.685 0z" fill="#708db7" stroke-width="2.1331"/>
<path d="m511.04 542.39m-34.129 0a34.129 34.129 0 1 0 68.258 0 34.129 34.129 0 1 0-68.258 0z" fill="#708db7" stroke-width="2.1331"/>
</svg>
